<?xml version="1.0" encoding="UTF-8"?>
<svg width="16px" height="16px" viewBox="0 0 16 16" version="1.1" xmlns="http://www.w3.org/2000/svg" xmlns:xlink="http://www.w3.org/1999/xlink">
    <!-- Generator: Sketch 46 (44423) - http://www.bohemiancoding.com/sketch -->
    <title>pinned-tab-icon</title>
    <desc>Created with Sketch.</desc>
    <defs></defs>
    <g id="Page-1" stroke="none" stroke-width="1" fill="none" fill-rule="evenodd">
        <g id="pinned-tab-icon" fill="#000000">
            <path d="M8,15 C4.13400675,15 1,11.8659932 1,8 C1,4.13400675 4.13400675,1 8,1 C11.8659932,1 15,4.13400675 15,8 C15,11.8659932 11.8659932,15 8,15 Z M9.16268974,4.51195618 L6.86465128,4.51195618 C4.96142999,4.51195618 3.97944879,5.19023186 3.97944879,6.64801837 C3.97944879,7.56925846 4.41476004,8.11592841 5.32587662,8.54111614 L3.54413754,11.5275538 L5.41698827,11.5275538 L6.85452776,8.84482167 L7.50243288,8.84482167 L7.50243288,11.5275538 L9.16268974,11.5275538 L9.16268974,8.84482167 C9.5876674,8.84482167 9.80322278,8.84482167 9.80996523,8.84482167 C12.3294587,8.84482167 12.6850442,7.56925846 12.6850442,6.64801837 C12.6850442,5.19023186 11.703063,4.51195618 9.79984172,4.51195618 L9.16269283,4.51195618 Z M7.50243288,5.6761607 L7.50243288,7.70086419 L6.80391017,7.70086419 C6.07501691,7.70086419 5.69032325,7.38703515 5.69032325,6.64801837 C5.69032325,5.9697427 6.08514043,5.6761607 6.90514535,5.6761607 L7.50243288,5.6761607 Z M9.16206011,5.6761607 L9.75934765,5.6761607 C10.5793526,5.6761607 10.9741697,5.9697427 10.9741697,6.64801837 C10.9741697,7.38703515 10.5894761,7.70086419 9.86058282,7.70086419 L9.16206011,7.70086419 L9.16206011,5.6761607 Z" id="Combined-Shape"></path>
        </g>
    </g>
</svg>