<?xml version="1.0" encoding="UTF-8"?>
<svg width="16px" height="16px" viewBox="0 0 16 16" version="1.1" xmlns="http://www.w3.org/2000/svg" xmlns:xlink="http://www.w3.org/1999/xlink">
    <!-- Generator: Sketch 46 (44423) - http://www.bohemiancoding.com/sketch -->
    <title>pinned-tab-icon</title>
    <desc>Created with Sketch.</desc>
    <defs></defs>
    <g id="pinned-tab-icon" fill="#000000">
      <path d="M2,0 L14,0 C15.1045695,-2.02906125e-16 16,0.8954305 16,2 L16,14 C16,15.1045695 15.1045695,16 14,16 L2,16 C0.8954305,16 1.3527075e-16,15.1045695 0,14 L0,2 L0,2 C-1.3527075e-16,0.8954305 0.8954305,2.02906125e-16 2,0 L2,0 Z M7.25084419,8.92522914 L9.31741438,12.6666667 L11.3704776,12.6666667 L8.92571153,8.60106126 C10.195369,8.10130246 10.8166908,7.34491076 10.8166908,6.07525326 C10.8166908,4.22479498 9.56054028,3.33333333 7.11577424,3.33333333 L4.33333333,3.33333333 L4.33333333,12.6666667 L6.11625663,12.6666667 L6.11625663,8.92522914 L7.25084419,8.92522914 Z M6.11625663,7.64206464 L6.11625663,4.63000482 L7.07525326,4.63000482 C8.37192475,4.63000482 8.95272552,5.06222865 8.95272552,6.07525326 C8.95272552,7.19633382 8.33140376,7.64206464 7.2238302,7.64206464 L6.11625663,7.64206464 Z" id="Combined-Shape"></path>
    </g>
</svg>
